<?xml version="1.0" standalone="no"?><!DOCTYPE svg PUBLIC "-//W3C//DTD SVG 1.1//EN" "http://www.w3.org/Graphics/SVG/1.1/DTD/svg11.dtd"><svg t="1764212920514" class="icon" viewBox="0 0 1024 1024" version="1.1" xmlns="http://www.w3.org/2000/svg" p-id="828" xmlns:xlink="http://www.w3.org/1999/xlink" width="200" height="200"><path d="M499.2 106.496c-208.384 0-377.856 169.472-377.856 377.856s168.96 377.856 377.856 377.856c208.384 0 377.856-169.472 377.856-377.856 0-208.896-169.472-377.856-377.856-377.856z m-165.376 606.208c-5.632 5.632-11.776 7.68-18.432 7.68s-13.312-2.56-18.432-7.68c-32.256-32.256-57.344-70.656-73.216-113.664-5.12-13.824 2.048-28.672 14.848-33.792 13.824-5.12 28.672 2.048 33.792 14.848 13.824 35.84 34.816 68.096 61.44 95.232 10.24 10.24 10.24 27.136 0 37.376z m0-419.84c-51.2 51.2-79.36 119.296-79.36 192-0.512 14.336-11.776 26.112-26.624 26.112-14.336 0-26.112-11.776-26.112-26.112 0-86.528 33.792-167.424 94.72-228.864 10.24-10.24 26.624-10.24 36.864 0 10.752 9.728 10.752 26.624 0.512 36.864z m165.376 334.848c-79.36 0-143.36-64-143.36-143.36s64-143.36 143.36-143.36 143.36 64 143.36 143.36-64 143.36-143.36 143.36z" fill="#9974f8" p-id="829"></path></svg>